<svg width="15" height="14" viewBox="0 0 15 14" fill="none" xmlns="http://www.w3.org/2000/svg">
<path d="M14.3072 7H0.191V13.3C0.191 13.4857 0.265361 13.6637 0.397727 13.795C0.530092 13.9263 0.709619 14 0.896812 14H13.6014C13.7886 14 13.9681 13.9263 14.1005 13.795C14.2329 13.6637 14.3072 13.4857 14.3072 13.3V7ZM3.72006 1.4H0.896812C0.709619 1.4 0.530092 1.47375 0.397727 1.60503C0.265361 1.7363 0.191 1.91435 0.191 2.1V5.6H14.3072V2.1C14.3072 1.91435 14.2329 1.7363 14.1005 1.60503C13.9681 1.47375 13.7886 1.4 13.6014 1.4H10.7782V0H9.36655V1.4H5.13168V0H3.72006V1.4Z" fill="#8A6CC8"/>
</svg>
