<svg width="71" height="22" viewBox="0 0 71 22" fill="none" xmlns="http://www.w3.org/2000/svg">
<path d="M11.1096 -1.43051e-06C13.2696 -1.43051e-06 15.1896 0.509999 16.8696 1.53C18.5696 2.55 19.8196 4.02 20.6196 5.94H17.3196C16.7196 4.8 15.8796 3.93 14.7996 3.33C13.7196 2.73 12.4896 2.43 11.1096 2.43C9.62961 2.43 8.28961 2.77 7.08961 3.45C5.90961 4.11 4.97961 5.06 4.29961 6.3C3.63961 7.54 3.30961 8.97 3.30961 10.59C3.30961 12.21 3.63961 13.64 4.29961 14.88C4.97961 16.12 5.90961 17.08 7.08961 17.76C8.28961 18.44 9.62961 18.78 11.1096 18.78C12.4896 18.78 13.7196 18.48 14.7996 17.88C15.8796 17.26 16.7196 16.38 17.3196 15.24H20.6196C19.8196 17.16 18.5696 18.63 16.8696 19.65C15.1896 20.67 13.2696 21.18 11.1096 21.18C9.16961 21.18 7.38961 20.73 5.76961 19.83C4.14961 18.91 2.86961 17.65 1.92961 16.05C0.989609 14.43 0.519609 12.61 0.519609 10.59C0.519609 8.55 0.989609 6.73 1.92961 5.13C2.86961 3.51 4.14961 2.25 5.76961 1.35C7.38961 0.449999 9.16961 -1.43051e-06 11.1096 -1.43051e-06ZM39.2599 4.53V21H36.5299V18.36C35.9899 19.32 35.2499 20.05 34.3099 20.55C33.3699 21.03 32.3199 21.27 31.1599 21.27C29.9799 21.27 28.8999 21.01 27.9199 20.49C26.9599 19.95 26.1899 19.16 25.6099 18.12C25.0499 17.08 24.7699 15.81 24.7699 14.31V4.53H27.4699V13.86C27.4699 15.5 27.8699 16.76 28.6699 17.64C29.4899 18.5 30.5999 18.93 31.9999 18.93C33.3999 18.93 34.4999 18.5 35.2999 17.64C36.1199 16.76 36.5299 15.5 36.5299 13.86V4.53H39.2599ZM46.4878 7.32C47.4678 5.28 49.1378 4.26 51.4978 4.26V7.11H50.7778C49.3778 7.11 48.3078 7.48 47.5678 8.22C46.8478 8.94 46.4878 10.2 46.4878 12V21H43.7578V4.53H46.4878V7.32ZM61.5827 4.26C62.9827 4.26 64.2027 4.59 65.2427 5.25C66.3027 5.91 67.1027 6.77 67.6427 7.83V4.53H70.4027V21H67.6427V17.64C67.1027 18.72 66.3027 19.6 65.2427 20.28C64.2027 20.94 62.9827 21.27 61.5827 21.27C60.1027 21.27 58.7627 20.91 57.5627 20.19C56.3827 19.45 55.4427 18.43 54.7427 17.13C54.0627 15.81 53.7227 14.32 53.7227 12.66C53.7227 11 54.0627 9.54 54.7427 8.28C55.4427 7 56.3827 6.01 57.5627 5.31C58.7627 4.61 60.1027 4.26 61.5827 4.26ZM62.0627 6.63C61.0827 6.63 60.1627 6.87 59.3027 7.35C58.4627 7.83 57.7827 8.53 57.2627 9.45C56.7627 10.35 56.5127 11.42 56.5127 12.66C56.5127 13.9 56.7627 15 57.2627 15.96C57.7827 16.9 58.4627 17.63 59.3027 18.15C60.1627 18.67 61.0827 18.93 62.0627 18.93C63.0627 18.93 63.9827 18.68 64.8227 18.18C65.6827 17.68 66.3627 16.97 66.8627 16.05C67.3827 15.11 67.6427 14.02 67.6427 12.78C67.6427 11.54 67.3827 10.46 66.8627 9.54C66.3627 8.6 65.6827 7.88 64.8227 7.38C63.9827 6.88 63.0627 6.63 62.0627 6.63Z" fill="#8A6CC8"/>
</svg>
